<svg id="svg" version="1.1" width="400" height="400" viewBox="0 0 400 400" xmlns="http://www.w3.org/2000/svg" xmlns:xlink="http://www.w3.org/1999/xlink"><g id="svgg"><path id="path0" d="M202.536 101.900 C 198.446 103.758,196.909 107.867,198.095 113.772 C 198.929 117.925,196.576 119.728,192.384 118.150 C 189.052 116.896,185.991 116.902,181.670 118.169 C 177.890 119.279,177.628 119.238,179.329 117.806 C 180.010 117.233,180.492 116.690,180.401 116.599 C 179.919 116.117,170.900 115.542,167.851 115.799 L 164.412 116.089 161.753 118.384 C 158.858 120.881,156.118 124.097,152.396 129.367 C 151.079 131.231,149.177 133.429,148.169 134.250 C 141.626 139.581,140.803 141.737,143.745 145.834 C 145.376 148.105,145.520 148.091,147.577 145.486 C 149.514 143.032,149.998 142.861,150.006 144.629 C 150.029 149.589,152.722 144.993,152.893 139.700 C 153.004 136.283,154.511 134.535,161.719 129.463 C 163.330 128.329,165.343 126.685,166.193 125.810 C 167.677 124.280,168.847 123.819,169.317 124.579 C 169.749 125.278,174.462 126.525,178.320 126.961 C 185.253 127.744,185.927 128.332,186.364 133.980 C 186.531 136.134,186.779 138.246,186.915 138.674 C 187.736 141.263,185.591 138.453,183.206 133.817 C 181.306 130.125,180.044 130.632,178.901 135.547 C 178.427 137.588,177.687 140.752,177.257 142.578 C 176.068 147.626,174.378 150.880,170.970 154.688 C 161.635 165.116,163.795 174.073,176.611 178.081 C 181.777 179.696,183.522 179.883,193.266 179.870 C 198.478 179.863,202.697 179.975,202.641 180.120 C 202.585 180.265,201.631 181.098,200.521 181.972 C 197.600 184.271,196.580 185.814,194.875 190.509 C 192.252 197.736,190.394 200.764,185.913 205.118 C 181.360 209.541,181.344 210.967,185.817 213.632 C 187.280 214.504,189.619 216.217,191.016 217.439 C 194.271 220.289,197.159 221.647,200.000 221.666 C 203.081 221.686,203.138 220.695,200.199 218.184 C 197.950 216.263,196.590 214.064,195.262 210.204 C 193.976 206.468,194.817 204.961,203.867 194.773 C 217.770 179.121,217.956 178.813,215.987 174.745 C 214.082 170.810,200.819 164.765,189.507 162.676 C 183.567 161.579,183.298 161.478,185.409 161.132 C 189.059 160.533,189.033 160.548,190.697 158.073 C 192.997 154.651,194.957 152.295,199.071 148.004 C 202.665 144.254,205.007 140.550,205.645 137.602 C 206.266 134.740,206.717 135.881,206.587 139.980 L 206.455 144.117 208.208 145.905 C 211.922 149.692,219.014 153.828,220.956 153.341 C 223.044 152.817,227.931 146.902,231.268 140.861 C 232.371 138.864,234.402 135.843,235.780 134.148 C 239.995 128.966,240.409 126.347,237.478 123.416 C 235.335 121.273,234.739 121.395,233.192 124.299 C 231.964 126.604,231.882 126.676,231.535 125.764 C 230.506 123.058,229.990 123.085,229.573 125.864 C 229.344 127.393,229.442 128.623,229.950 130.600 L 230.637 133.270 228.055 135.678 C 218.224 144.845,218.750 144.398,218.750 143.594 C 218.750 142.573,215.828 138.733,213.867 137.177 C 212.376 135.994,211.746 135.149,211.205 133.607 C 210.319 131.084,208.240 128.746,205.770 127.494 L 203.874 126.533 204.693 125.383 C 206.196 123.272,206.877 123.014,208.728 123.855 C 211.760 125.232,212.448 124.849,213.876 120.990 C 214.375 119.639,214.824 119.062,215.511 118.890 C 216.386 118.670,216.436 118.530,216.170 117.041 C 215.845 115.228,215.842 115.450,216.227 110.926 C 216.842 103.684,209.404 98.780,202.536 101.900 M282.541 113.264 C 280.305 114.627,279.316 117.363,280.189 119.773 C 280.439 120.463,279.305 122.023,273.350 129.181 C 269.423 133.900,261.289 143.710,255.273 150.979 C 240.623 168.684,242.160 167.057,240.083 167.057 C 236.704 167.057,234.571 169.522,234.947 172.992 L 235.173 175.086 231.764 178.852 C 229.889 180.923,227.293 183.769,225.994 185.176 C 224.695 186.584,220.469 191.224,216.602 195.489 C 212.734 199.753,207.944 204.999,205.957 207.146 C 202.085 211.329,201.838 211.888,203.269 213.233 L 204.195 214.103 206.478 211.446 C 207.733 209.985,209.910 207.557,211.314 206.050 C 212.718 204.544,215.889 201.043,218.359 198.269 C 222.700 193.397,224.058 191.892,231.281 183.956 C 233.125 181.931,235.253 179.583,236.012 178.738 C 237.349 177.249,237.458 177.206,239.705 177.298 C 243.558 177.455,245.597 175.149,245.164 171.127 L 244.929 168.945 253.226 158.966 C 257.790 153.478,265.648 143.986,270.690 137.873 C 284.334 121.328,282.679 123.048,284.961 123.046 C 289.327 123.042,291.825 119.248,289.997 115.397 C 288.730 112.726,285.118 111.693,282.541 113.264 M274.719 143.861 L 264.477 156.445 264.465 195.227 C 264.455 229.325,264.524 234.036,265.038 234.233 C 265.360 234.357,267.865 233.748,270.605 232.879 C 273.344 232.011,276.904 230.923,278.516 230.462 C 280.127 230.000,283.643 228.942,286.328 228.110 C 289.014 227.279,292.485 226.231,294.043 225.783 L 296.875 224.967 296.879 191.292 C 296.882 172.771,296.993 156.958,297.126 156.152 L 297.368 154.688 301.040 154.688 L 304.713 154.688 300.742 149.902 C 298.558 147.271,294.221 141.997,291.105 138.184 C 287.989 134.370,285.332 131.256,285.200 131.264 C 285.069 131.271,280.352 136.940,274.719 143.861 M172.191 133.140 C 171.828 133.509,170.861 134.045,170.043 134.330 C 166.021 135.735,161.341 139.105,161.319 140.614 C 161.315 140.942,160.967 141.650,160.547 142.188 C 160.127 142.725,159.779 143.416,159.774 143.725 C 159.770 144.033,159.377 144.699,158.903 145.204 C 158.195 145.957,158.592 145.838,161.112 144.542 C 162.801 143.673,164.552 142.893,165.002 142.809 C 165.452 142.725,167.227 141.980,168.945 141.152 L 172.070 139.648 172.177 137.891 C 172.236 136.924,172.443 135.781,172.636 135.352 C 173.614 133.181,173.365 131.946,172.191 133.140 M161.381 179.875 C 160.282 182.342,158.694 186.341,157.852 188.762 C 155.110 196.644,155.155 196.585,149.679 199.424 C 145.333 201.678,143.499 203.556,140.864 208.452 C 136.393 216.758,133.408 220.043,129.962 220.448 C 124.934 221.039,124.282 221.935,125.335 226.805 C 125.747 228.713,126.188 232.001,126.315 234.112 C 126.866 243.287,131.620 247.715,132.049 239.453 C 132.319 234.256,134.703 228.211,138.113 224.077 C 141.906 219.479,155.035 208.263,160.742 204.746 C 162.806 203.475,163.983 202.374,165.541 200.261 C 166.677 198.721,168.932 195.879,170.554 193.945 C 173.954 189.890,178.439 183.957,178.506 183.427 C 178.531 183.228,177.376 182.759,175.940 182.385 C 172.346 181.450,168.041 179.247,165.706 177.147 C 163.253 174.941,163.708 174.654,161.381 179.875 M227.637 198.633 L 219.531 207.774 219.531 241.999 L 219.531 276.225 220.410 275.961 C 226.774 274.053,242.917 265.693,249.696 260.795 L 251.930 259.180 251.942 224.316 L 251.953 189.453 243.848 189.473 L 235.742 189.492 227.637 198.633 M134.799 191.229 C 133.172 192.160,129.331 194.825,128.906 195.318 C 128.799 195.443,128.148 195.938,127.461 196.418 C 126.774 196.898,125.143 198.735,123.838 200.501 C 122.532 202.266,121.120 204.150,120.698 204.688 C 120.277 205.225,119.930 205.884,119.927 206.152 C 119.924 206.421,119.750 206.641,119.540 206.641 C 118.641 206.641,113.652 213.392,114.169 213.909 C 114.671 214.411,119.253 211.163,120.764 209.234 C 124.054 205.035,127.588 201.459,130.844 199.035 C 133.946 196.725,134.325 196.291,135.533 193.671 C 136.256 192.103,136.916 190.688,137.001 190.527 C 137.281 189.996,136.548 190.230,134.799 191.229 M167.095 216.236 C 165.716 216.985,164.844 218.696,164.844 220.654 C 164.844 222.405,164.282 222.964,156.836 228.624 C 154.688 230.256,151.773 232.526,150.359 233.667 C 148.944 234.808,145.643 237.390,143.023 239.403 C 139.879 241.819,137.934 243.617,137.306 244.689 C 135.609 247.585,133.351 249.219,131.046 249.219 C 130.532 249.219,128.127 250.317,125.701 251.660 C 121.487 253.992,121.181 254.097,118.875 254.006 C 116.426 253.910,114.074 255.070,114.057 256.382 C 114.043 257.384,113.239 257.924,109.563 259.397 C 104.177 261.556,103.856 261.797,104.412 263.271 C 104.982 264.780,104.862 264.796,110.104 262.510 C 114.319 260.672,114.600 260.603,115.651 261.146 C 118.374 262.554,121.156 261.327,121.689 258.484 C 121.933 257.185,122.220 256.972,127.282 254.339 C 130.849 252.483,134.041 250.438,136.914 248.168 C 139.277 246.300,143.672 242.825,146.680 240.445 C 149.688 238.065,153.203 235.333,154.492 234.374 C 155.781 233.414,158.506 231.299,160.547 229.674 C 166.217 225.160,166.650 224.894,167.542 225.371 C 169.274 226.298,171.771 225.873,173.436 224.369 C 175.214 222.763,175.055 222.765,183.789 224.214 C 186.152 224.606,189.053 225.043,190.234 225.185 L 192.383 225.444 191.362 224.734 C 190.800 224.343,189.609 223.468,188.715 222.789 C 187.588 221.934,186.463 221.476,185.049 221.296 C 182.764 221.007,176.684 219.964,175.781 219.707 C 175.459 219.616,174.953 218.995,174.658 218.329 C 173.586 215.906,169.690 214.828,167.095 216.236 M295.244 234.183 C 295.135 234.292,293.656 234.736,291.957 235.170 C 290.257 235.605,286.670 236.646,283.984 237.484 C 281.299 238.323,277.212 239.578,274.902 240.273 C 271.551 241.282,270.703 241.682,270.703 242.253 C 270.703 242.647,270.835 242.970,270.996 242.972 C 271.157 242.974,272.520 244.112,274.023 245.500 L 276.758 248.025 271.289 253.353 C 261.413 262.975,252.850 269.278,241.602 275.205 C 239.238 276.450,236.562 277.874,235.654 278.370 C 229.195 281.895,211.631 287.818,200.000 290.392 C 182.892 294.178,171.493 295.484,147.852 296.366 L 140.430 296.643 145.313 296.978 C 176.996 299.152,211.936 293.705,236.914 282.699 C 259.278 272.845,274.720 260.431,294.141 236.693 C 295.945 234.488,296.734 232.693,295.244 234.183 M163.672 261.305 C 163.672 275.472,163.804 287.143,163.965 287.240 C 164.328 287.459,174.040 286.551,180.078 285.733 C 186.785 284.826,192.383 283.769,200.098 281.956 L 207.031 280.327 207.031 257.937 L 207.031 235.547 185.352 235.547 L 163.672 235.547 163.672 261.305 M125.781 261.327 C 125.781 263.130,120.878 266.406,118.180 266.406 L 116.406 266.406 116.406 276.699 L 116.406 286.992 120.215 287.243 C 130.842 287.945,142.854 288.328,146.733 288.088 L 151.083 287.819 151.370 274.808 C 151.528 267.652,151.537 261.604,151.391 261.367 C 151.039 260.797,125.781 260.758,125.781 261.327 M134.473 296.363 C 134.849 296.461,135.464 296.461,135.840 296.363 C 136.216 296.265,135.908 296.184,135.156 296.184 C 134.404 296.184,134.097 296.265,134.473 296.363 " stroke="none" fill="#fbecd9" fill-rule="evenodd"></path><path id="path1" d="M0.000 200.000 L 0.000 400.000 200.000 400.000 L 400.000 400.000 400.000 200.000 L 400.000 0.000 200.000 0.000 L 0.000 0.000 0.000 200.000 M217.383 50.174 C 325.652 63.290,386.756 184.909,331.766 277.836 C 271.095 380.365,126.059 379.144,66.963 275.606 C 6.535 169.736,96.116 35.483,217.383 50.174 M190.234 51.414 C 189.482 51.492,186.934 51.747,184.570 51.982 C 86.446 61.733,24.298 166.583,62.953 257.164 C 104.769 355.153,230.336 379.621,305.079 304.344 C 392.432 216.368,340.765 68.100,217.188 52.118 C 212.659 51.532,193.853 51.041,190.234 51.414 M211.900 102.151 C 213.220 102.816,214.737 103.970,215.413 104.824 L 216.602 106.328 216.511 112.441 C 216.461 115.804,216.417 118.687,216.413 118.848 C 216.409 119.009,216.133 119.141,215.800 119.141 C 215.436 119.141,214.722 120.147,214.018 121.651 C 212.450 125.003,212.089 125.275,210.029 124.654 C 206.756 123.667,206.424 123.680,205.525 124.821 C 204.379 126.279,204.401 126.326,206.853 127.710 C 209.148 129.005,210.976 131.353,211.781 134.039 C 212.071 135.006,212.805 135.917,214.077 136.887 C 216.073 138.409,217.440 140.019,218.524 142.123 L 219.195 143.425 221.609 141.086 C 222.937 139.800,225.122 137.845,226.466 136.742 C 230.083 133.770,230.255 133.414,229.490 130.461 C 228.329 125.979,229.468 121.847,231.243 124.104 C 232.188 125.305,232.239 125.275,233.673 122.685 C 234.528 121.142,235.530 121.150,237.311 122.714 C 240.925 125.888,240.503 129.212,235.788 134.709 C 234.617 136.074,233.090 138.272,232.394 139.592 C 229.214 145.627,223.785 152.563,221.500 153.509 C 219.338 154.405,212.406 150.617,208.014 146.141 L 206.067 144.156 206.193 141.414 C 206.352 137.974,206.008 137.995,204.324 141.526 C 203.317 143.636,202.051 145.309,199.243 148.242 C 197.186 150.391,194.409 153.643,193.073 155.469 C 189.190 160.775,189.046 160.936,188.154 160.965 C 185.362 161.055,186.254 161.629,190.497 162.474 C 201.878 164.737,214.407 170.674,216.373 174.735 C 218.190 178.489,217.606 179.599,208.203 190.283 C 194.726 205.596,194.315 206.229,195.497 209.852 C 196.782 213.791,198.129 216.010,200.468 218.036 C 203.798 220.921,203.398 222.585,199.493 222.097 C 196.581 221.733,193.988 220.422,190.816 217.710 C 189.314 216.426,186.980 214.712,185.629 213.900 C 180.959 211.095,180.942 209.552,185.529 205.078 C 190.154 200.568,192.458 196.770,194.697 189.968 C 195.891 186.344,197.195 184.344,199.775 182.188 C 202.255 180.115,202.347 180.148,194.733 180.377 C 169.035 181.148,157.422 169.792,169.611 155.810 C 173.301 151.576,174.450 149.857,175.530 146.948 C 176.467 144.427,176.727 143.445,178.517 135.689 C 179.874 129.811,181.419 129.564,184.163 134.785 C 186.075 138.424,186.201 138.387,186.008 134.253 C 185.750 128.738,185.013 128.060,178.516 127.366 C 174.728 126.962,171.363 126.137,169.423 125.137 C 168.372 124.596,168.262 124.642,165.856 126.645 C 164.491 127.781,161.952 129.743,160.215 131.004 C 154.651 135.042,153.125 136.967,153.125 139.946 C 153.125 142.483,152.257 145.857,151.355 146.824 C 150.654 147.575,150.000 147.034,150.000 145.703 C 150.000 143.558,149.250 143.888,146.612 147.192 C 145.166 149.004,142.305 145.827,141.907 141.967 L 141.686 139.825 144.202 137.393 C 145.586 136.055,147.421 134.410,148.279 133.737 C 149.137 133.064,151.149 130.603,152.749 128.268 C 154.526 125.676,157.294 122.388,159.858 119.824 L 164.057 115.625 167.087 115.549 C 172.254 115.420,177.455 115.643,179.420 116.079 L 181.301 116.497 180.457 117.395 L 179.613 118.294 181.115 117.914 C 181.941 117.705,183.320 117.351,184.180 117.129 C 186.480 116.532,190.995 116.962,192.960 117.964 C 196.269 119.652,198.425 117.549,197.642 113.399 C 195.799 103.633,203.215 97.783,211.900 102.151 M287.650 112.651 C 293.301 115.013,291.155 123.394,284.883 123.456 L 283.008 123.475 279.249 128.046 C 277.181 130.560,273.226 135.350,270.460 138.690 C 267.693 142.030,263.915 146.600,262.063 148.846 C 260.212 151.092,255.670 156.588,251.971 161.058 L 245.246 169.187 245.503 171.060 C 246.043 174.988,243.906 177.518,240.000 177.577 L 237.485 177.615 235.442 179.956 C 234.318 181.243,231.098 184.829,228.287 187.926 C 225.476 191.022,221.257 195.679,218.912 198.275 C 216.567 200.871,212.297 205.586,209.422 208.752 L 204.196 214.509 202.879 213.233 C 201.109 211.517,200.725 212.072,212.305 199.614 C 213.809 197.996,218.203 193.164,222.070 188.877 C 225.938 184.590,230.378 179.687,231.939 177.981 L 234.777 174.880 234.530 173.024 C 234.067 169.533,236.777 166.578,240.326 166.703 C 241.682 166.751,241.944 166.561,244.037 163.999 C 245.276 162.483,248.719 158.317,251.688 154.742 C 261.102 143.408,265.045 138.648,270.503 132.031 C 273.427 128.486,276.690 124.560,277.754 123.306 C 279.661 121.058,279.688 120.990,279.688 118.356 C 279.688 113.601,283.458 110.900,287.650 112.651 M289.733 135.989 C 292.050 138.810,294.912 142.302,296.094 143.750 C 297.275 145.197,299.780 148.250,301.660 150.534 C 303.540 152.818,305.078 154.774,305.078 154.882 C 305.078 154.990,303.427 155.078,301.409 155.078 C 298.424 155.078,297.696 155.193,297.503 155.696 C 297.372 156.036,297.266 171.844,297.266 190.825 L 297.266 225.335 295.020 225.974 C 290.468 227.270,274.268 232.142,269.587 233.623 C 266.933 234.464,264.604 235.054,264.412 234.935 C 264.210 234.811,264.065 218.154,264.068 195.582 L 264.074 156.445 265.533 154.608 C 271.216 147.454,284.970 130.859,285.217 130.859 C 285.384 130.859,287.416 133.168,289.733 135.989 M174.219 131.757 C 174.219 132.387,172.066 141.788,171.473 143.745 C 170.511 146.923,169.634 148.353,166.279 152.209 C 163.097 155.867,163.968 155.386,153.320 159.372 C 148.594 161.142,140.276 164.345,134.836 166.489 C 129.396 168.634,124.885 170.327,124.812 170.253 C 124.738 170.178,128.134 168.026,132.358 165.469 C 157.075 150.512,153.786 153.242,158.906 143.433 C 161.250 138.941,161.587 138.497,163.625 137.188 C 168.385 134.132,174.219 131.141,174.219 131.757 M164.502 175.645 C 166.438 177.978,171.652 180.872,176.033 182.046 C 177.714 182.497,179.136 182.912,179.194 182.970 C 179.381 183.157,176.088 187.593,172.280 192.286 C 170.231 194.811,167.412 198.366,166.016 200.185 C 163.991 202.823,162.867 203.872,160.470 205.360 C 151.673 210.821,138.062 223.425,135.836 228.170 C 132.623 235.024,132.696 234.787,132.456 239.063 C 132.203 243.582,132.011 244.141,130.709 244.141 C 128.292 244.141,125.801 238.265,125.787 232.535 C 125.784 231.200,125.429 228.599,124.999 226.755 C 123.839 221.778,124.586 220.818,130.174 220.110 C 133.229 219.722,136.096 216.497,140.412 208.594 C 143.174 203.534,145.206 201.400,149.335 199.221 C 154.999 196.233,155.059 196.155,157.567 188.600 C 158.696 185.198,161.645 178.114,162.944 175.684 C 163.400 174.829,163.817 174.819,164.502 175.645 M156.001 178.965 C 155.406 180.114,154.031 183.677,152.945 186.883 L 150.972 192.711 147.460 194.738 C 142.811 197.420,139.312 200.699,137.117 204.429 C 134.898 208.202,132.750 209.121,121.409 211.149 C 119.579 211.476,118.234 212.902,107.891 225.489 C 100.173 234.879,99.907 235.153,97.961 235.732 C 96.861 236.058,95.892 236.256,95.807 236.172 C 95.679 236.044,105.170 223.689,119.673 205.107 C 127.639 194.899,126.866 195.684,132.276 192.299 C 135.042 190.569,139.373 187.858,141.901 186.275 C 144.429 184.693,148.823 181.888,151.666 180.042 C 157.612 176.181,157.419 176.229,156.001 178.965 M252.344 224.199 L 252.344 259.336 249.902 261.076 C 242.148 266.605,222.696 276.563,219.651 276.563 C 219.235 276.563,219.141 270.211,219.141 242.200 L 219.141 207.837 221.754 204.798 C 223.192 203.126,225.257 200.787,226.344 199.601 C 227.431 198.415,229.989 195.558,232.029 193.253 L 235.737 189.063 244.040 189.063 L 252.344 189.063 252.344 224.199 M172.872 216.028 C 173.578 216.465,174.501 217.406,174.922 218.119 C 175.521 219.135,176.014 219.463,177.199 219.633 C 187.217 221.071,187.141 221.051,189.616 222.912 C 190.905 223.881,192.450 224.927,193.050 225.237 C 195.385 226.445,194.743 226.425,185.938 225.020 C 183.467 224.625,180.006 224.078,178.246 223.803 L 175.047 223.304 173.460 224.738 C 171.769 226.266,169.284 226.694,167.538 225.760 C 166.686 225.304,167.471 224.725,144.595 242.662 C 134.468 250.603,131.987 252.354,127.532 254.705 C 122.800 257.203,122.296 257.572,122.056 258.709 C 121.425 261.709,118.375 263.198,115.708 261.808 C 114.326 261.087,114.132 261.075,113.065 261.638 C 111.312 262.563,104.988 265.277,104.881 265.151 C 104.490 264.688,103.516 262.432,103.516 261.988 C 103.516 261.653,105.412 260.642,108.361 259.406 C 112.441 257.696,113.279 257.198,113.670 256.255 C 114.509 254.230,115.448 253.712,118.303 253.700 C 120.716 253.690,121.218 253.521,125.440 251.301 C 127.937 249.988,130.726 248.787,131.637 248.633 C 133.528 248.314,135.964 246.354,136.711 244.550 C 137.033 243.773,140.284 240.986,146.815 235.887 C 152.112 231.752,158.247 226.962,160.449 225.243 C 164.322 222.220,164.453 222.068,164.453 220.578 C 164.453 216.425,169.287 213.813,172.872 216.028 M296.950 233.408 C 297.063 233.521,297.014 234.444,296.842 235.459 C 296.669 236.474,295.626 242.930,294.522 249.805 C 293.419 256.680,292.435 262.558,292.336 262.867 C 292.215 263.244,291.019 262.297,288.697 259.986 L 285.239 256.544 279.908 261.378 C 247.130 291.093,202.144 302.971,141.756 297.858 C 126.468 296.563,111.794 294.615,122.070 295.245 C 129.702 295.712,161.484 295.525,167.383 294.978 C 213.238 290.726,245.796 277.608,270.586 253.397 C 276.478 247.642,276.263 248.047,274.320 246.375 C 271.793 244.200,269.124 241.683,269.232 241.576 C 269.352 241.457,295.711 233.413,296.517 233.249 C 296.642 233.224,296.837 233.296,296.950 233.408 M207.227 258.008 L 207.227 280.664 203.711 281.556 C 191.920 284.548,175.800 287.123,166.016 287.577 L 163.477 287.695 163.375 261.914 C 163.320 247.734,163.359 235.912,163.462 235.641 C 163.611 235.253,168.215 235.171,185.438 235.251 L 207.227 235.352 207.227 258.008 M151.563 274.368 L 151.563 288.189 148.232 288.466 C 144.571 288.771,134.195 288.506,123.145 287.826 L 116.016 287.387 116.016 276.976 L 116.016 266.565 118.607 266.121 C 121.493 265.627,123.373 264.404,124.968 261.981 L 125.912 260.547 138.737 260.547 L 151.563 260.547 151.563 274.368 M379.117 370.601 C 380.038 373.015,383.235 376.212,385.649 377.133 C 387.999 378.031,387.978 378.134,385.185 379.415 C 382.503 380.647,380.055 383.192,379.068 385.774 C 378.373 387.596,377.844 387.949,377.506 386.816 C 376.519 383.501,373.569 380.250,370.476 379.068 C 368.654 378.373,368.301 377.844,369.434 377.506 C 372.749 376.519,376.000 373.569,377.182 370.476 C 378.012 368.300,378.243 368.315,379.117 370.601 " stroke="none" fill="#f44e04" fill-rule="evenodd"></path><path id="path2" d="M186.626 117.073 C 187.112 117.167,187.815 117.163,188.188 117.065 C 188.562 116.967,188.164 116.891,187.305 116.895 C 186.445 116.900,186.140 116.980,186.626 117.073 M166.193 125.879 L 164.648 127.539 166.309 125.995 C 167.853 124.559,168.148 124.219,167.853 124.219 C 167.789 124.219,167.042 124.966,166.193 125.879 M170.604 133.377 C 168.938 134.286,167.459 135.145,167.317 135.287 C 166.780 135.825,171.570 133.694,172.295 133.073 C 172.714 132.715,173.117 132.422,173.192 132.422 C 173.414 132.422,173.019 134.503,172.636 135.352 C 172.443 135.781,172.236 136.924,172.177 137.891 L 172.070 139.648 168.945 141.152 C 167.227 141.980,165.452 142.725,165.002 142.809 C 164.552 142.893,162.794 143.677,161.096 144.550 C 159.397 145.424,157.944 146.117,157.865 146.091 C 157.786 146.065,156.907 147.505,155.912 149.291 L 154.101 152.539 146.875 156.924 C 142.900 159.335,136.704 163.083,133.105 165.251 C 129.507 167.420,126.563 169.267,126.563 169.357 C 126.563 169.522,127.051 169.338,134.375 166.408 C 136.631 165.506,142.871 163.112,148.242 161.089 C 153.613 159.066,159.176 156.966,160.603 156.422 C 166.779 154.067,170.864 147.342,173.231 135.632 C 174.083 131.418,174.126 131.455,170.604 133.377 M164.941 136.549 C 164.028 137.097,163.281 137.637,163.281 137.749 C 163.281 137.960,165.917 136.463,166.582 135.875 C 167.253 135.281,166.628 135.538,164.941 136.549 M162.192 138.154 C 161.743 138.335,158.203 144.907,158.203 145.561 C 158.203 145.706,158.555 145.506,158.984 145.117 C 159.414 144.728,159.770 144.130,159.774 143.787 C 159.779 143.444,160.127 142.725,160.547 142.188 C 160.967 141.650,161.315 140.927,161.319 140.580 C 161.324 140.233,161.692 139.486,162.138 138.920 C 162.583 138.354,162.891 137.905,162.821 137.921 C 162.752 137.938,162.469 138.043,162.192 138.154 M206.641 144.653 C 206.641 144.721,207.212 145.292,207.910 145.923 L 209.180 147.070 208.032 145.801 C 206.963 144.617,206.641 144.352,206.641 144.653 M296.970 190.690 C 296.895 217.648,296.771 224.977,296.387 225.132 C 296.004 225.286,296.007 225.336,296.399 225.360 C 297.267 225.413,297.274 225.098,297.169 190.430 L 297.066 156.445 296.970 190.690 M233.380 176.660 L 231.836 178.320 233.496 176.776 C 235.040 175.340,235.336 175.000,235.040 175.000 C 234.976 175.000,234.229 175.747,233.380 176.660 M236.307 178.418 L 234.961 179.883 236.426 178.537 C 237.789 177.284,238.070 176.953,237.772 176.953 C 237.707 176.953,237.047 177.612,236.307 178.418 M154.688 178.357 C 153.936 178.894,149.189 181.903,144.141 185.045 C 135.105 190.668,132.910 192.137,135.486 190.836 C 137.269 189.936,137.272 190.024,135.576 193.566 C 134.191 196.460,133.853 196.851,130.788 199.102 C 127.612 201.435,124.069 205.016,120.764 209.234 C 119.467 210.890,115.222 214.063,114.304 214.063 C 113.825 214.063,114.079 213.183,114.907 211.974 C 116.891 209.080,114.323 212.261,105.495 223.633 C 100.325 230.293,96.236 235.789,96.407 235.846 C 98.098 236.411,99.907 234.786,106.770 226.536 C 118.489 212.451,119.151 211.695,120.086 211.340 C 120.585 211.150,123.227 210.535,125.958 209.972 C 133.873 208.342,134.786 207.895,136.660 204.740 C 139.512 199.940,143.522 196.337,148.939 193.708 L 150.807 192.801 152.212 188.295 C 152.984 185.817,154.285 182.339,155.103 180.566 C 156.728 177.046,156.704 176.919,154.688 178.357 M227.880 182.693 C 225.759 184.990,224.220 186.752,224.461 186.607 C 225.025 186.269,232.179 178.516,231.927 178.516 C 231.823 178.516,230.001 180.395,227.880 182.693 M199.316 179.967 C 199.907 180.057,200.874 180.057,201.465 179.967 C 202.056 179.878,201.572 179.805,200.391 179.805 C 199.209 179.805,198.726 179.878,199.316 179.967 M190.728 180.358 C 191.322 180.448,192.201 180.446,192.681 180.353 C 193.162 180.260,192.676 180.187,191.602 180.190 C 190.527 180.193,190.134 180.269,190.728 180.358 M233.182 181.934 L 231.836 183.398 233.301 182.052 C 234.664 180.799,234.945 180.469,234.647 180.469 C 234.582 180.469,233.922 181.128,233.182 181.934 M230.078 185.123 C 229.756 185.499,229.066 186.275,228.545 186.848 C 227.000 188.549,227.821 188.034,229.688 186.133 C 230.636 185.166,231.244 184.390,231.038 184.408 C 230.832 184.425,230.400 184.747,230.078 185.123 M220.121 191.309 C 218.211 193.403,217.226 194.590,217.931 193.945 C 219.351 192.648,224.000 187.500,223.751 187.500 C 223.665 187.500,222.031 189.214,220.121 191.309 M225.371 190.527 C 222.320 193.724,220.917 195.313,221.145 195.313 C 221.254 195.313,222.793 193.730,224.567 191.797 C 228.166 187.872,228.681 187.059,225.371 190.527 M243.846 189.351 L 251.949 189.469 252.052 224.324 L 252.155 259.180 252.152 224.219 L 252.148 189.258 243.945 189.245 L 235.742 189.233 243.846 189.351 M130.273 193.718 C 128.984 194.551,127.314 195.894,126.563 196.703 L 125.195 198.174 126.953 196.841 C 127.920 196.108,128.799 195.411,128.906 195.292 C 129.014 195.174,129.937 194.485,130.957 193.761 C 132.574 192.615,133.079 192.165,132.715 192.196 C 132.661 192.200,131.563 192.885,130.273 193.718 M214.630 197.363 L 213.086 199.023 214.746 197.479 C 216.290 196.043,216.586 195.703,216.290 195.703 C 216.226 195.703,215.479 196.450,214.630 197.363 M218.149 198.535 L 216.211 200.586 218.262 198.647 C 220.167 196.846,220.492 196.484,220.200 196.484 C 220.138 196.484,219.216 197.407,218.149 198.535 M207.807 204.785 C 205.796 206.987,204.814 208.174,205.626 207.422 C 207.258 205.909,211.896 200.781,211.632 200.781 C 211.540 200.781,209.819 202.583,207.807 204.785 M214.823 202.246 L 213.477 203.711 214.941 202.365 C 216.305 201.112,216.586 200.781,216.288 200.781 C 216.222 200.781,215.563 201.440,214.823 202.246 M120.311 204.590 C 115.477 210.672,115.332 210.884,117.695 208.407 C 118.920 207.123,119.922 205.970,119.922 205.844 C 119.922 205.719,120.231 205.275,120.609 204.859 C 121.381 204.007,122.746 201.953,122.540 201.953 C 122.466 201.953,121.463 203.140,120.311 204.590 M210.722 206.738 C 207.841 209.773,206.471 211.328,206.680 211.328 C 206.782 211.328,208.233 209.834,209.904 208.008 C 213.249 204.353,213.803 203.492,210.722 206.738 M219.233 242.090 C 219.182 261.050,219.272 276.563,219.434 276.563 C 219.699 276.563,219.696 252.117,219.427 219.922 C 219.371 213.154,219.283 223.130,219.233 242.090 M202.802 210.279 C 201.680 211.474,201.731 212.168,203.027 213.311 L 204.102 214.258 203.223 213.256 C 202.125 212.005,202.119 211.422,203.193 210.279 C 203.660 209.782,203.955 209.375,203.847 209.375 C 203.740 209.375,203.270 209.782,202.802 210.279 M169.238 215.504 C 169.614 215.602,170.229 215.602,170.605 215.504 C 170.981 215.405,170.674 215.325,169.922 215.325 C 169.170 215.325,168.862 215.405,169.238 215.504 M164.544 220.703 C 164.544 221.455,164.624 221.763,164.722 221.387 C 164.821 221.011,164.821 220.396,164.722 220.020 C 164.624 219.644,164.544 219.951,164.544 220.703 M182.520 220.972 C 182.896 221.071,183.511 221.071,183.887 220.972 C 184.263 220.874,183.955 220.794,183.203 220.794 C 182.451 220.794,182.144 220.874,182.520 220.972 M161.034 224.943 C 157.008 228.136,156.608 228.725,160.463 225.786 C 163.246 223.665,164.455 222.598,163.988 222.677 C 163.922 222.688,162.592 223.708,161.034 224.943 M189.812 223.579 C 190.332 224.220,191.797 225.189,191.797 224.892 C 191.797 224.817,191.226 224.338,190.527 223.827 C 189.742 223.252,189.469 223.157,189.812 223.579 M178.613 223.707 C 178.989 223.805,179.604 223.805,179.980 223.707 C 180.356 223.609,180.049 223.528,179.297 223.528 C 178.545 223.528,178.237 223.609,178.613 223.707 M191.406 225.417 C 190.557 225.666,190.620 225.708,191.895 225.742 C 193.382 225.782,193.756 225.614,192.871 225.303 C 192.603 225.208,191.943 225.260,191.406 225.417 M163.184 227.574 C 161.948 228.556,160.938 229.445,160.938 229.550 C 160.938 229.654,161.992 228.911,163.281 227.898 C 165.347 226.275,165.880 225.774,165.527 225.784 C 165.474 225.786,164.419 226.591,163.184 227.574 M169.238 226.051 C 169.614 226.149,170.229 226.149,170.605 226.051 C 170.981 225.952,170.674 225.872,169.922 225.872 C 169.170 225.872,168.862 225.952,169.238 226.051 M287.305 227.734 C 286.812 227.946,286.740 228.070,287.109 228.070 C 287.432 228.070,288.047 227.919,288.477 227.734 C 288.969 227.523,289.041 227.399,288.672 227.399 C 288.350 227.399,287.734 227.550,287.305 227.734 M148.534 234.709 C 144.511 237.899,144.134 238.456,147.926 235.607 C 150.629 233.576,152.003 232.355,151.488 232.442 C 151.422 232.453,150.092 233.473,148.534 234.709 M295.833 234.136 C 295.833 234.709,295.719 234.854,288.226 243.750 C 258.735 278.763,219.137 296.034,165.820 297.139 C 153.332 297.398,137.367 296.888,143.945 296.441 C 146.387 296.274,145.410 296.221,140.746 296.267 C 137.053 296.303,134.120 296.191,134.227 296.018 C 134.334 295.845,132.414 295.703,129.960 295.703 C 127.507 295.703,124.640 295.590,123.590 295.453 C 122.539 295.315,121.769 295.302,121.878 295.423 C 122.156 295.733,134.572 297.111,144.336 297.917 C 154.632 298.766,181.761 298.888,188.672 298.116 C 206.575 296.116,216.916 294.057,229.393 290.006 C 250.024 283.309,267.118 273.327,281.668 259.481 L 285.203 256.117 288.644 259.542 L 292.085 262.967 292.534 260.488 C 293.081 257.469,296.875 234.176,296.875 233.836 C 296.875 233.703,296.641 233.594,296.354 233.594 C 296.068 233.594,295.833 233.838,295.833 234.136 M293.555 234.375 L 292.773 234.711 293.555 234.732 C 293.984 234.744,294.600 234.583,294.922 234.375 C 295.698 233.873,294.723 233.873,293.555 234.375 M290.820 235.156 C 290.328 235.368,290.256 235.492,290.625 235.492 C 290.947 235.492,291.563 235.341,291.992 235.156 C 292.485 234.945,292.557 234.821,292.188 234.821 C 291.865 234.821,291.250 234.972,290.820 235.156 M150.098 237.706 C 148.325 239.104,146.875 240.334,146.875 240.440 C 146.875 240.545,148.369 239.460,150.195 238.030 C 153.125 235.735,153.785 235.147,153.418 235.160 C 153.364 235.162,151.870 236.307,150.098 237.706 M207.214 258.008 C 207.214 270.469,207.264 275.623,207.324 269.461 C 207.384 263.300,207.384 253.105,207.324 246.805 C 207.264 240.506,207.214 245.547,207.214 258.008 M281.055 238.092 C 279.551 238.588,278.522 239.010,278.767 239.028 C 279.362 239.074,284.375 237.519,284.375 237.289 C 284.375 237.025,284.061 237.101,281.055 238.092 M271.387 240.926 C 269.014 241.716,268.955 241.559,272.879 244.900 L 276.227 247.751 275.133 248.973 C 274.532 249.645,272.981 251.343,271.688 252.746 C 270.379 254.164,270.982 253.668,273.047 251.625 L 276.758 247.955 274.023 245.465 C 272.520 244.096,271.157 242.974,270.996 242.972 C 269.801 242.958,270.943 241.464,272.559 240.926 C 273.579 240.587,274.150 240.309,273.828 240.309 C 273.506 240.309,272.407 240.587,271.387 240.926 M137.898 243.262 C 137.440 243.853,136.676 244.947,136.199 245.694 C 135.723 246.441,134.740 247.451,134.015 247.940 C 133.290 248.428,132.885 248.828,133.115 248.828 C 133.900 248.828,135.893 246.844,137.449 244.514 C 139.084 242.067,139.306 241.446,137.898 243.262 M137.500 247.709 L 135.742 249.301 137.397 248.060 C 138.836 246.980,139.760 246.069,139.379 246.105 C 139.312 246.112,138.467 246.834,137.500 247.709 M130.566 249.097 C 130.942 249.196,131.558 249.196,131.934 249.097 C 132.310 248.999,132.002 248.919,131.250 248.919 C 130.498 248.919,130.190 248.999,130.566 249.097 M134.362 250.110 C 133.818 250.587,132.939 251.292,132.409 251.677 C 131.482 252.351,131.495 252.351,132.738 251.677 C 133.449 251.292,134.403 250.581,134.857 250.098 C 135.909 248.979,135.646 248.985,134.362 250.110 M123.047 252.734 C 121.865 253.359,121.036 253.878,121.204 253.888 C 121.620 253.913,125.391 251.988,125.391 251.751 C 125.391 251.490,125.445 251.468,123.047 252.734 M126.074 254.907 C 124.624 255.652,123.438 256.348,123.438 256.456 C 123.438 256.563,124.668 256.031,126.172 255.273 C 127.676 254.516,128.906 253.811,128.906 253.706 C 128.906 253.444,129.016 253.398,126.074 254.907 M114.814 254.980 L 113.867 256.055 115.039 255.078 C 115.684 254.541,116.284 254.058,116.374 254.004 C 116.463 253.950,116.362 253.906,116.149 253.906 C 115.936 253.906,115.335 254.390,114.814 254.980 M266.767 257.269 C 266.246 257.830,264.063 259.696,261.914 261.417 C 257.657 264.826,256.328 266.035,258.789 264.259 C 262.674 261.455,268.605 256.250,267.915 256.250 C 267.804 256.250,267.288 256.709,266.767 257.269 M111.133 258.418 C 110.059 258.939,109.619 259.258,110.156 259.126 C 111.276 258.850,114.066 257.453,113.477 257.463 C 113.262 257.467,112.207 257.896,111.133 258.418 M121.484 259.197 C 121.484 261.214,117.861 262.411,115.625 261.133 C 114.152 260.291,113.700 260.441,115.039 261.328 C 116.863 262.536,119.320 262.381,120.733 260.968 C 121.721 259.980,122.273 258.594,121.680 258.594 C 121.572 258.594,121.484 258.865,121.484 259.197 M130.469 260.824 C 141.795 261.100,151.563 261.107,151.563 260.840 C 151.563 260.679,145.806 260.585,138.770 260.631 C 131.733 260.677,127.998 260.764,130.469 260.824 M104.159 261.433 C 103.427 261.968,104.200 264.844,105.075 264.844 C 105.657 264.844,108.646 263.594,108.475 263.423 C 108.391 263.339,107.687 263.537,106.908 263.862 C 105.014 264.654,104.927 264.633,104.416 263.280 C 104.026 262.246,104.072 262.037,104.808 261.522 C 105.267 261.201,105.461 260.938,105.240 260.938 C 105.018 260.938,104.532 261.161,104.159 261.433 M110.547 262.305 C 110.010 262.612,109.746 262.863,109.961 262.863 C 110.176 262.863,110.791 262.612,111.328 262.305 C 111.865 261.998,112.129 261.746,111.914 261.746 C 111.699 261.746,111.084 261.998,110.547 262.305 M255.664 266.245 L 254.492 267.252 255.762 266.412 C 256.460 265.950,257.031 265.496,257.031 265.403 C 257.031 265.111,256.866 265.213,255.664 266.245 M240.918 266.239 C 239.458 267.031,239.547 267.361,241.016 266.602 C 241.660 266.268,242.188 265.912,242.188 265.810 C 242.188 265.559,242.146 265.573,240.918 266.239 M116.187 276.758 C 116.186 282.559,116.241 284.986,116.307 282.152 C 116.374 279.318,116.374 274.572,116.308 271.605 C 116.241 268.638,116.187 270.957,116.187 276.758 M250.977 269.378 C 249.902 270.130,247.925 271.366,246.582 272.125 C 245.239 272.884,244.141 273.594,244.141 273.704 C 244.141 274.172,252.488 269.074,252.953 268.321 C 253.278 267.796,253.107 267.887,250.977 269.378 M226.953 273.242 C 226.416 273.549,226.152 273.800,226.367 273.800 C 226.582 273.800,227.197 273.549,227.734 273.242 C 228.271 272.935,228.535 272.684,228.320 272.684 C 228.105 272.684,227.490 272.935,226.953 273.242 M151.172 281.426 L 151.172 287.852 148.926 287.993 L 146.680 288.134 149.121 288.207 L 151.563 288.281 151.563 281.641 C 151.563 277.988,151.475 275.000,151.367 275.000 C 151.260 275.000,151.172 277.892,151.172 281.426 M232.617 279.484 C 231.543 279.990,230.781 280.418,230.925 280.436 C 231.334 280.487,234.766 278.958,234.766 278.725 C 234.766 278.457,234.891 278.413,232.617 279.484 M220.703 284.180 C 219.307 284.683,218.350 285.109,218.576 285.126 C 219.099 285.164,223.828 283.577,223.828 283.363 C 223.828 283.099,223.360 283.222,220.703 284.180 M170.219 286.995 C 170.705 287.088,171.408 287.085,171.782 286.987 C 172.155 286.889,171.758 286.813,170.898 286.817 C 170.039 286.822,169.733 286.902,170.219 286.995 M118.853 287.390 C 119.447 287.479,120.326 287.477,120.806 287.384 C 121.287 287.292,120.801 287.218,119.727 287.221 C 118.652 287.224,118.259 287.300,118.853 287.390 M165.923 287.386 C 166.408 287.479,167.112 287.476,167.485 287.378 C 167.858 287.280,167.461 287.204,166.602 287.208 C 165.742 287.212,165.437 287.292,165.923 287.386 M208.984 287.907 C 207.803 288.301,207.188 288.621,207.617 288.618 C 208.047 288.614,209.277 288.287,210.352 287.891 C 212.880 286.958,211.788 286.971,208.984 287.907 M124.121 287.783 C 124.819 287.869,125.962 287.869,126.660 287.783 C 127.358 287.696,126.787 287.625,125.391 287.625 C 123.994 287.625,123.423 287.696,124.121 287.783 M132.910 288.175 C 133.716 288.259,135.034 288.259,135.840 288.175 C 136.646 288.091,135.986 288.022,134.375 288.022 C 132.764 288.022,132.104 288.091,132.910 288.175 M179.004 294.019 C 179.380 294.118,179.995 294.118,180.371 294.019 C 180.747 293.921,180.439 293.841,179.688 293.841 C 178.936 293.841,178.628 293.921,179.004 294.019 M175.879 294.410 C 176.255 294.508,176.870 294.508,177.246 294.410 C 177.622 294.312,177.314 294.231,176.563 294.231 C 175.811 294.231,175.503 294.312,175.879 294.410 M172.173 294.808 C 172.658 294.901,173.362 294.897,173.735 294.800 C 174.108 294.702,173.711 294.625,172.852 294.630 C 171.992 294.634,171.687 294.714,172.173 294.808 M168.066 295.202 C 168.657 295.291,169.624 295.291,170.215 295.202 C 170.806 295.112,170.322 295.039,169.141 295.039 C 167.959 295.039,167.476 295.112,168.066 295.202 M162.800 295.596 C 163.502 295.683,164.557 295.681,165.144 295.592 C 165.731 295.502,165.156 295.431,163.867 295.434 C 162.578 295.436,162.098 295.509,162.800 295.596 M153.628 295.992 C 154.871 296.070,156.804 296.069,157.924 295.991 C 159.045 295.912,158.027 295.848,155.664 295.849 C 153.301 295.850,152.384 295.914,153.628 295.992 M377.562 369.824 C 376.857 372.766,372.729 376.923,369.892 377.546 C 368.456 377.861,368.427 378.354,369.824 378.688 C 372.766 379.393,376.923 383.521,377.546 386.358 C 377.861 387.794,378.354 387.823,378.688 386.426 C 379.393 383.484,383.521 379.327,386.358 378.704 C 387.794 378.389,387.823 377.896,386.426 377.562 C 383.484 376.857,379.327 372.729,378.704 369.892 C 378.389 368.456,377.896 368.427,377.562 369.824 " stroke="none" fill="#fbb05c" fill-rule="evenodd"></path><path id="path3" d="M211.914 102.405 C 212.773 102.849,214.003 103.677,214.647 104.243 L 215.817 105.273 214.842 104.161 C 213.936 103.127,211.365 101.540,210.660 101.580 C 210.490 101.589,211.055 101.961,211.914 102.405 M198.228 105.495 C 197.888 106.154,197.663 106.849,197.730 107.040 C 197.797 107.230,198.146 106.691,198.506 105.841 C 199.282 104.010,199.109 103.793,198.228 105.495 M216.531 109.375 C 216.531 110.771,216.602 111.343,216.689 110.645 C 216.775 109.946,216.775 108.804,216.689 108.105 C 216.602 107.407,216.531 107.979,216.531 109.375 M197.391 110.156 C 197.391 111.553,197.462 112.124,197.548 111.426 C 197.635 110.728,197.635 109.585,197.548 108.887 C 197.462 108.188,197.391 108.760,197.391 110.156 M284.673 112.386 C 285.158 112.479,285.862 112.476,286.235 112.378 C 286.608 112.280,286.211 112.204,285.352 112.208 C 284.492 112.212,284.187 112.292,284.673 112.386 M287.695 112.957 C 288.125 113.196,288.749 113.586,289.082 113.824 C 289.414 114.063,289.273 113.862,288.767 113.379 C 288.261 112.896,287.637 112.505,287.381 112.512 C 287.124 112.518,287.266 112.719,287.695 112.957 M216.133 114.844 C 216.133 116.025,216.206 116.509,216.295 115.918 C 216.385 115.327,216.385 114.360,216.295 113.770 C 216.206 113.179,216.133 113.662,216.133 114.844 M170.410 115.504 C 170.786 115.602,171.401 115.602,171.777 115.504 C 172.153 115.405,171.846 115.325,171.094 115.325 C 170.342 115.325,170.034 115.405,170.410 115.504 M163.252 116.699 L 162.305 117.773 163.281 116.929 C 163.818 116.464,164.697 116.005,165.234 115.908 L 166.211 115.731 165.205 115.678 C 164.552 115.644,163.866 116.002,163.252 116.699 M176.660 115.894 C 177.036 115.993,177.651 115.993,178.027 115.894 C 178.403 115.796,178.096 115.716,177.344 115.716 C 176.592 115.716,176.284 115.796,176.660 115.894 M290.716 117.578 C 290.716 118.330,290.796 118.638,290.894 118.262 C 290.993 117.886,290.993 117.271,290.894 116.895 C 290.796 116.519,290.716 116.826,290.716 117.578 M179.297 117.969 C 177.804 119.225,177.985 119.361,180.078 118.555 C 180.904 118.237,181.156 118.016,180.714 117.998 C 180.109 117.974,180.066 117.868,180.469 117.383 C 181.204 116.497,180.813 116.692,179.297 117.969 M192.133 117.977 C 193.069 118.402,193.948 118.743,194.086 118.734 C 194.579 118.701,191.589 117.220,191.016 117.212 C 190.693 117.208,191.196 117.552,192.133 117.977 M159.364 120.215 L 156.836 122.852 159.473 120.324 C 160.923 118.934,162.109 117.747,162.109 117.687 C 162.109 117.400,161.712 117.766,159.364 120.215 M279.606 120.303 C 279.476 121.185,279.550 121.370,279.912 121.070 C 280.174 120.852,280.298 120.329,280.188 119.908 C 279.915 118.865,279.806 118.940,279.606 120.303 M236.825 122.651 C 238.575 124.134,239.434 125.661,239.506 127.422 C 239.547 128.407,239.601 128.495,239.734 127.792 C 240.096 125.888,238.314 122.897,236.177 121.820 C 235.723 121.591,236.014 121.965,236.825 122.651 M277.897 123.145 C 276.168 125.031,275.247 126.172,275.451 126.172 C 275.551 126.172,276.467 125.205,277.487 124.023 C 279.499 121.693,279.782 121.087,277.897 123.145 M155.219 124.902 C 153.240 127.394,152.999 127.734,153.210 127.734 C 153.309 127.734,154.209 126.680,155.210 125.391 C 156.211 124.102,156.954 123.047,156.862 123.047 C 156.769 123.047,156.030 123.882,155.219 124.902 M232.526 124.530 C 232.127 125.114,232.020 125.124,231.649 124.609 C 231.326 124.161,231.288 124.299,231.488 125.195 C 231.847 126.799,231.886 126.805,232.617 125.391 C 233.318 124.036,233.257 123.461,232.526 124.530 M166.968 125.488 L 165.820 126.758 167.047 125.651 C 168.236 124.579,168.311 124.564,169.469 125.163 C 171.170 126.043,171.566 125.900,169.922 125.000 C 168.160 124.036,168.302 124.012,166.968 125.488 M204.348 125.915 C 204.109 126.203,204.029 126.555,204.170 126.696 C 204.635 127.161,204.911 126.966,204.911 126.172 C 204.911 125.245,204.906 125.243,204.348 125.915 M229.005 127.539 C 229.009 128.398,229.089 128.704,229.183 128.218 C 229.276 127.732,229.272 127.029,229.175 126.656 C 229.077 126.282,229.000 126.680,229.005 127.539 M176.860 127.229 C 177.346 127.323,178.049 127.319,178.423 127.222 C 178.796 127.124,178.398 127.047,177.539 127.052 C 176.680 127.056,176.374 127.136,176.860 127.229 M180.566 127.613 C 180.942 127.711,181.558 127.711,181.934 127.613 C 182.310 127.515,182.002 127.434,181.250 127.434 C 180.498 127.434,180.190 127.515,180.566 127.613 M186.069 133.984 C 186.069 135.596,186.138 136.255,186.222 135.449 C 186.306 134.644,186.306 133.325,186.222 132.520 C 186.138 131.714,186.069 132.373,186.069 133.984 M148.999 133.301 L 147.852 134.570 149.121 133.423 C 149.819 132.792,150.391 132.221,150.391 132.153 C 150.391 131.852,150.068 132.117,148.999 133.301 M229.646 133.530 C 229.301 134.136,227.499 135.902,225.642 137.453 C 223.785 139.004,222.266 140.357,222.266 140.460 C 222.266 140.563,223.664 139.491,225.373 138.076 C 228.509 135.482,230.469 133.446,230.469 132.783 C 230.469 132.212,230.317 132.350,229.646 133.530 M282.031 134.375 C 281.132 135.449,280.484 136.328,280.591 136.328 C 280.699 136.328,281.522 135.449,282.422 134.375 C 283.321 133.301,283.969 132.422,283.862 132.422 C 283.754 132.422,282.931 133.301,282.031 134.375 M155.259 134.863 L 153.320 136.914 155.371 134.976 C 156.499 133.909,157.422 132.987,157.422 132.925 C 157.422 132.633,157.060 132.958,155.259 134.863 M183.628 134.473 C 185.788 138.783,187.106 140.350,186.796 138.242 C 186.695 137.551,186.499 137.223,186.341 137.479 C 185.983 138.059,185.565 137.544,184.219 134.863 C 183.653 133.735,183.101 132.813,182.993 132.813 C 182.885 132.813,183.171 133.560,183.628 134.473 M273.047 135.156 C 272.147 136.230,271.500 137.109,271.607 137.109 C 271.714 137.109,272.538 136.230,273.438 135.156 C 274.337 134.082,274.985 133.203,274.877 133.203 C 274.770 133.203,273.946 134.082,273.047 135.156 M235.327 134.863 L 234.180 136.133 235.449 134.986 C 236.147 134.354,236.719 133.783,236.719 133.716 C 236.719 133.414,236.396 133.680,235.327 134.863 M144.507 137.027 C 143.016 138.485,141.798 139.935,141.798 140.249 C 141.799 140.563,142.126 140.285,142.526 139.630 C 142.925 138.976,144.278 137.525,145.532 136.408 C 146.786 135.290,147.678 134.375,147.515 134.375 C 147.351 134.375,145.997 135.568,144.507 137.027 M206.132 136.230 C 205.700 137.001,205.494 138.672,205.831 138.672 C 206.038 138.672,206.273 139.507,206.354 140.527 C 206.448 141.730,206.525 141.249,206.570 139.160 C 206.636 136.155,206.539 135.505,206.132 136.230 M217.946 141.995 C 219.092 144.408,219.152 144.447,219.891 143.262 C 220.385 142.467,220.378 142.432,219.812 142.900 C 219.267 143.351,219.083 143.216,218.388 141.852 C 217.175 139.476,216.807 139.595,217.946 141.995 M199.210 147.949 L 195.898 151.367 199.316 148.055 C 201.196 146.234,202.734 144.696,202.734 144.638 C 202.734 144.353,202.286 144.775,199.210 147.949 M175.825 146.137 C 175.584 146.827,175.455 147.461,175.539 147.544 C 175.623 147.628,175.888 147.131,176.128 146.441 C 176.369 145.751,176.498 145.117,176.414 145.034 C 176.331 144.950,176.065 145.447,175.825 146.137 M258.949 145.996 C 257.275 147.862,256.513 148.828,256.714 148.828 C 256.821 148.828,257.650 147.949,258.556 146.875 C 260.298 144.809,260.581 144.176,258.949 145.996 M259.911 151.058 C 258.864 152.285,258.212 153.163,258.461 153.010 C 259.006 152.675,262.260 148.828,261.998 148.828 C 261.897 148.828,260.957 149.832,259.911 151.058 M173.046 151.660 C 172.471 152.446,172.376 152.719,172.798 152.376 C 173.439 151.856,174.407 150.391,174.111 150.391 C 174.036 150.391,173.557 150.962,173.046 151.660 M223.047 152.025 C 222.080 152.907,221.641 153.442,222.070 153.215 C 222.805 152.826,225.344 150.372,224.975 150.407 C 224.882 150.415,224.014 151.144,223.047 152.025 M267.152 152.637 C 265.478 154.503,264.716 155.469,264.917 155.469 C 265.024 155.469,265.853 154.590,266.759 153.516 C 268.501 151.450,268.784 150.817,267.152 152.637 M297.272 155.371 C 297.276 155.838,297.372 155.906,297.577 155.584 C 297.760 155.296,299.163 155.061,301.184 154.979 L 304.492 154.847 300.879 154.767 C 297.666 154.696,297.266 154.763,297.272 155.371 M264.243 156.348 C 264.140 156.616,264.102 174.414,264.157 195.898 L 264.258 234.961 264.453 195.410 C 264.561 173.657,264.599 155.859,264.539 155.859 C 264.478 155.859,264.345 156.079,264.243 156.348 M247.620 159.668 C 245.947 161.534,245.185 162.500,245.386 162.500 C 245.493 162.500,246.322 161.621,247.228 160.547 C 248.970 158.481,249.253 157.848,247.620 159.668 M184.766 161.308 C 183.914 161.563,184.028 161.639,185.663 161.902 C 186.693 162.068,187.645 162.094,187.778 161.961 C 187.912 161.828,187.508 161.706,186.882 161.691 C 185.892 161.667,185.845 161.620,186.523 161.328 L 187.305 160.992 186.523 161.004 C 186.094 161.010,185.303 161.147,184.766 161.308 M164.965 165.820 C 164.967 167.109,165.040 167.590,165.127 166.888 C 165.214 166.185,165.212 165.131,165.123 164.544 C 165.034 163.957,164.963 164.531,164.965 165.820 M204.297 166.992 C 204.834 167.299,205.449 167.550,205.664 167.550 C 205.879 167.550,205.615 167.299,205.078 166.992 C 204.541 166.685,203.926 166.434,203.711 166.434 C 203.496 166.434,203.760 166.685,204.297 166.992 M234.474 172.070 C 234.478 172.930,234.558 173.235,234.651 172.749 C 234.745 172.263,234.741 171.560,234.643 171.187 C 234.546 170.813,234.469 171.211,234.474 172.070 M245.403 172.266 C 245.403 173.018,245.484 173.325,245.582 172.949 C 245.680 172.573,245.680 171.958,245.582 171.582 C 245.484 171.206,245.403 171.514,245.403 172.266 M168.555 174.219 C 169.394 175.078,170.168 175.781,170.276 175.781 C 170.383 175.781,169.784 175.078,168.945 174.219 C 168.106 173.359,167.332 172.656,167.224 172.656 C 167.117 172.656,167.716 173.359,168.555 174.219 M234.796 174.188 C 234.780 174.493,234.465 175.109,234.097 175.555 C 233.466 176.321,233.479 176.319,234.338 175.529 C 234.839 175.068,235.154 174.453,235.038 174.162 C 234.867 173.733,234.821 173.738,234.796 174.188 M216.895 177.539 C 216.900 178.398,216.980 178.704,217.073 178.218 C 217.167 177.732,217.163 177.029,217.065 176.656 C 216.967 176.282,216.891 176.680,216.895 177.539 M166.406 177.486 C 166.406 177.593,166.934 178.057,167.578 178.516 C 168.223 178.975,168.750 179.262,168.750 179.155 C 168.750 179.047,168.223 178.584,167.578 178.125 C 166.934 177.666,166.406 177.378,166.406 177.486 M230.448 179.590 L 229.102 181.055 230.566 179.709 C 231.930 178.456,232.211 178.125,231.913 178.125 C 231.847 178.125,231.188 178.784,230.448 179.590 M169.141 179.488 C 169.141 179.756,171.532 180.942,171.711 180.763 C 171.796 180.678,171.252 180.316,170.503 179.959 C 169.754 179.602,169.141 179.390,169.141 179.488 M202.148 179.986 C 200.994 180.835,200.567 181.789,201.660 181.078 C 202.251 180.693,202.734 180.223,202.734 180.033 C 202.734 179.618,202.658 179.612,202.148 179.986 M186.628 180.361 C 187.330 180.448,188.385 180.446,188.972 180.357 C 189.559 180.268,188.984 180.197,187.695 180.199 C 186.406 180.201,185.926 180.274,186.628 180.361 M194.425 180.360 C 195.118 180.446,196.349 180.448,197.159 180.363 C 197.970 180.279,197.402 180.208,195.898 180.206 C 194.395 180.205,193.731 180.274,194.425 180.360 M232.401 183.105 L 231.055 184.570 232.520 183.224 C 233.883 181.971,234.164 181.641,233.866 181.641 C 233.800 181.641,233.141 182.300,232.401 183.105 M226.733 183.691 L 225.586 184.961 226.855 183.814 C 227.554 183.183,228.125 182.611,228.125 182.544 C 228.125 182.242,227.803 182.508,226.733 183.691 M195.880 186.755 C 195.536 187.420,195.324 188.033,195.409 188.117 C 195.494 188.202,195.855 187.658,196.213 186.909 C 197.016 185.225,196.738 185.096,195.880 186.755 M207.593 190.723 L 206.445 191.992 207.715 190.845 C 208.413 190.214,208.984 189.643,208.984 189.575 C 208.984 189.274,208.662 189.539,207.593 190.723 M224.979 191.309 L 223.633 192.773 225.098 191.427 C 226.461 190.174,226.742 189.844,226.444 189.844 C 226.379 189.844,225.719 190.503,224.979 191.309 M219.318 191.895 L 217.773 193.555 219.434 192.011 C 220.978 190.575,221.273 190.234,220.978 190.234 C 220.914 190.234,220.167 190.981,219.318 191.895 M232.031 193.164 C 231.082 194.131,230.394 194.922,230.501 194.922 C 230.609 194.922,231.473 194.131,232.422 193.164 C 233.371 192.197,234.059 191.406,233.952 191.406 C 233.844 191.406,232.980 192.197,232.031 193.164 M192.642 195.134 C 191.987 196.570,192.112 196.877,192.820 195.571 C 193.150 194.961,193.347 194.389,193.258 194.300 C 193.169 194.210,192.891 194.586,192.642 195.134 M221.264 195.410 L 220.117 196.680 221.387 195.532 C 222.085 194.901,222.656 194.330,222.656 194.263 C 222.656 193.961,222.334 194.227,221.264 195.410 M126.733 196.191 L 125.586 197.461 126.855 196.314 C 128.039 195.244,128.305 194.922,128.003 194.922 C 127.936 194.922,127.364 195.493,126.733 196.191 M153.908 196.414 C 152.935 197.438,152.815 197.675,153.489 197.237 C 154.295 196.714,155.850 194.869,155.419 194.949 C 155.339 194.963,154.659 195.623,153.908 196.414 M168.729 196.387 L 167.383 197.852 168.848 196.505 C 169.653 195.765,170.313 195.106,170.313 195.041 C 170.313 194.742,169.982 195.023,168.729 196.387 M229.077 196.582 L 227.930 197.852 229.199 196.704 C 229.897 196.073,230.469 195.502,230.469 195.435 C 230.469 195.133,230.146 195.399,229.077 196.582 M201.932 197.168 L 200.586 198.633 202.051 197.287 C 203.414 196.034,203.695 195.703,203.397 195.703 C 203.332 195.703,202.672 196.362,201.932 197.168 M217.358 199.707 L 216.211 200.977 217.480 199.829 C 218.179 199.198,218.750 198.627,218.750 198.560 C 218.750 198.258,218.428 198.524,217.358 199.707 M225.781 200.195 C 224.832 201.162,224.144 201.953,224.251 201.953 C 224.359 201.953,225.223 201.162,226.172 200.195 C 227.121 199.229,227.809 198.438,227.702 198.438 C 227.594 198.438,226.730 199.229,225.781 200.195 M211.328 200.586 C 210.379 201.553,209.691 202.344,209.798 202.344 C 209.906 202.344,210.770 201.553,211.719 200.586 C 212.668 199.619,213.356 198.828,213.249 198.828 C 213.141 198.828,212.277 199.619,211.328 200.586 M144.595 202.603 L 142.383 204.815 144.727 202.723 C 146.016 201.573,147.144 200.578,147.233 200.511 C 147.323 200.445,147.263 200.391,147.101 200.391 C 146.939 200.391,145.811 201.386,144.595 202.603 M214.041 203.418 L 212.695 204.883 214.160 203.537 C 215.524 202.284,215.805 201.953,215.506 201.953 C 215.441 201.953,214.782 202.612,214.041 203.418 M186.889 204.004 L 185.742 205.273 187.012 204.126 C 188.195 203.057,188.461 202.734,188.159 202.734 C 188.092 202.734,187.521 203.306,186.889 204.004 M184.155 206.348 L 183.008 207.617 184.277 206.470 C 185.461 205.400,185.726 205.078,185.425 205.078 C 185.357 205.078,184.786 205.649,184.155 206.348 M206.229 212.012 L 204.883 213.477 206.348 212.130 C 207.153 211.390,207.813 210.731,207.813 210.666 C 207.813 210.367,207.482 210.648,206.229 212.012 M145.093 217.285 L 143.945 218.555 145.215 217.407 C 146.398 216.338,146.664 216.016,146.362 216.016 C 146.295 216.016,145.724 216.587,145.093 217.285 M133.764 218.457 L 132.617 219.727 133.887 218.579 C 135.070 217.510,135.336 217.188,135.034 217.188 C 134.967 217.188,134.396 217.759,133.764 218.457 M140.796 221.191 L 139.648 222.461 140.918 221.314 C 142.101 220.244,142.367 219.922,142.065 219.922 C 141.998 219.922,141.427 220.493,140.796 221.191 M125.913 232.813 C 125.913 234.424,125.982 235.083,126.066 234.277 C 126.150 233.472,126.150 232.153,126.066 231.348 C 125.982 230.542,125.913 231.201,125.913 232.813 M163.461 235.645 C 163.358 235.913,163.321 247.734,163.378 261.914 L 163.482 287.695 163.577 261.624 L 163.672 235.553 185.449 235.449 L 207.227 235.345 185.437 235.251 C 168.295 235.176,163.608 235.260,163.461 235.645 M132.165 240.039 C 132.167 241.758,132.235 242.412,132.318 241.494 C 132.400 240.575,132.399 239.169,132.315 238.369 C 132.231 237.569,132.164 238.320,132.165 240.039 M134.936 246.973 L 133.789 248.242 135.059 247.095 C 136.242 246.025,136.508 245.703,136.206 245.703 C 136.139 245.703,135.567 246.274,134.936 246.973 M270.889 253.223 L 267.773 256.445 270.996 253.329 C 273.989 250.436,274.397 250.000,274.112 250.000 C 274.053 250.000,272.603 251.450,270.889 253.223 M123.608 263.770 L 122.461 265.039 123.730 263.892 C 124.914 262.822,125.180 262.500,124.878 262.500 C 124.811 262.500,124.239 263.071,123.608 263.770 M168.457 287.379 C 168.833 287.477,169.448 287.477,169.824 287.379 C 170.200 287.280,169.893 287.200,169.141 287.200 C 168.389 287.200,168.081 287.280,168.457 287.379 M127.441 288.175 C 128.247 288.259,129.565 288.259,130.371 288.175 C 131.177 288.091,130.518 288.022,128.906 288.022 C 127.295 288.022,126.636 288.091,127.441 288.175 M140.739 288.571 C 142.198 288.647,144.483 288.646,145.817 288.570 C 147.151 288.494,145.957 288.432,143.164 288.433 C 140.371 288.434,139.280 288.496,140.739 288.571 M126.074 295.588 C 126.558 295.681,127.349 295.681,127.832 295.588 C 128.315 295.495,127.920 295.419,126.953 295.419 C 125.986 295.419,125.591 295.495,126.074 295.588 M158.105 295.595 C 158.804 295.682,159.946 295.682,160.645 295.595 C 161.343 295.508,160.771 295.438,159.375 295.438 C 157.979 295.438,157.407 295.508,158.105 295.595 M140.337 295.983 C 140.931 296.073,141.810 296.071,142.291 295.978 C 142.771 295.885,142.285 295.812,141.211 295.815 C 140.137 295.818,139.744 295.894,140.337 295.983 M144.634 295.983 C 145.228 296.073,146.107 296.071,146.587 295.978 C 147.068 295.885,146.582 295.812,145.508 295.815 C 144.434 295.818,144.041 295.894,144.634 295.983 " stroke="none" fill="#e78d59" fill-rule="evenodd"></path><path id="path4" d="M187.980 49.611 C 78.337 58.788,12.928 180.937,66.963 275.606 C 126.059 379.144,271.095 380.365,331.766 277.836 C 393.246 173.940,308.558 39.518,187.980 49.611 M217.188 52.118 C 328.258 66.482,385.678 191.860,322.901 282.947 C 257.781 377.435,118.021 367.846,66.661 265.367 C 20.883 174.022,82.726 62.102,184.570 51.982 C 186.934 51.747,189.482 51.492,190.234 51.414 C 193.853 51.041,212.659 51.532,217.188 52.118 M168.139 149.707 L 166.992 150.977 168.262 149.829 C 168.960 149.198,169.531 148.627,169.531 148.560 C 169.531 148.258,169.209 148.524,168.139 149.707 M153.905 152.051 C 153.330 152.836,153.236 153.109,153.658 152.767 C 154.298 152.246,155.267 150.781,154.970 150.781 C 154.895 150.781,154.416 151.353,153.905 152.051 M125.586 169.587 C 124.819 170.059,124.641 170.309,125.070 170.310 C 125.430 170.312,125.959 170.079,126.245 169.793 C 126.531 169.507,126.983 169.346,127.250 169.435 C 127.885 169.646,127.881 169.278,127.246 169.045 C 126.978 168.946,126.230 169.190,125.586 169.587 M140.625 199.414 C 139.676 200.381,138.988 201.172,139.095 201.172 C 139.203 201.172,140.067 200.381,141.016 199.414 C 141.964 198.447,142.653 197.656,142.545 197.656 C 142.438 197.656,141.574 198.447,140.625 199.414 M192.773 225.781 C 192.086 226.077,192.124 226.120,193.089 226.144 C 193.727 226.160,194.086 226.008,193.945 225.781 C 193.813 225.566,193.670 225.403,193.629 225.418 C 193.588 225.433,193.203 225.597,192.773 225.781 M282.603 258.691 L 280.664 260.742 282.715 258.804 C 283.843 257.738,284.766 256.815,284.766 256.753 C 284.766 256.461,284.404 256.786,282.603 258.691 M288.658 259.858 C 291.751 263.051,292.931 263.671,292.465 261.858 C 292.324 261.311,292.267 261.371,292.233 262.101 C 292.192 262.968,291.832 262.725,288.770 259.757 L 285.352 256.445 288.658 259.858 M277.905 262.988 L 276.758 264.258 278.027 263.111 C 278.726 262.479,279.297 261.908,279.297 261.841 C 279.297 261.539,278.975 261.805,277.905 262.988 M121.191 287.769 C 121.567 287.868,122.183 287.868,122.559 287.769 C 122.935 287.671,122.627 287.591,121.875 287.591 C 121.123 287.591,120.815 287.671,121.191 287.769 M118.945 295.313 C 120.770 295.777,122.203 295.777,121.484 295.313 C 121.162 295.104,120.195 294.952,119.336 294.974 C 117.831 295.013,117.816 295.025,118.945 295.313 M123.633 295.703 C 123.140 295.915,123.068 296.039,123.438 296.039 C 123.760 296.039,124.375 295.888,124.805 295.703 C 125.297 295.492,125.369 295.367,125.000 295.367 C 124.678 295.367,124.063 295.518,123.633 295.703 M135.441 295.985 C 136.134 296.071,137.364 296.073,138.175 295.988 C 138.985 295.904,138.418 295.833,136.914 295.831 C 135.410 295.830,134.747 295.899,135.441 295.985 M148.347 295.986 C 149.049 296.073,150.104 296.071,150.691 295.982 C 151.278 295.893,150.703 295.822,149.414 295.824 C 148.125 295.826,147.645 295.899,148.347 295.986 M142.285 297.926 C 142.661 298.024,143.276 298.024,143.652 297.926 C 144.028 297.827,143.721 297.747,142.969 297.747 C 142.217 297.747,141.909 297.827,142.285 297.926 M147.168 298.323 C 147.651 298.416,148.442 298.416,148.926 298.323 C 149.409 298.229,149.014 298.153,148.047 298.153 C 147.080 298.153,146.685 298.229,147.168 298.323 M153.809 298.720 C 154.507 298.807,155.649 298.807,156.348 298.720 C 157.046 298.633,156.475 298.563,155.078 298.563 C 153.682 298.563,153.110 298.633,153.809 298.720 M180.566 298.717 C 181.157 298.807,182.124 298.807,182.715 298.717 C 183.306 298.628,182.822 298.555,181.641 298.555 C 180.459 298.555,179.976 298.628,180.566 298.717 M166.130 299.118 C 167.589 299.194,169.874 299.193,171.208 299.117 C 172.541 299.041,171.348 298.979,168.555 298.980 C 165.762 298.981,164.670 299.043,166.130 299.118 " stroke="none" fill="#fb7c38" fill-rule="evenodd"></path></g></svg>